<?xml version="1.0" standalone="no"?>
<!DOCTYPE svg PUBLIC "-//W3C//DTD SVG 20010904//EN"
 "http://www.w3.org/TR/2001/REC-SVG-20010904/DTD/svg10.dtd">
<svg version="1.0" xmlns="http://www.w3.org/2000/svg"
 width="200.000000pt" height="200.000000pt" viewBox="0 0 200.000000 200.000000"
 preserveAspectRatio="xMidYMid meet">
<metadata>
Created by potrace 1.11, written by Peter Selinger 2001-2013
</metadata>
<g transform="translate(0.000000,200.000000) scale(0.100000,-0.100000)"
fill="#000000" stroke="none">
<path d="M895 1088 c1 -68 3 -125 4 -127 0 -2 7 1 14 7 7 6 12 25 11 42 -1 16
0 30 3 30 3 0 26 -18 50 -40 59 -55 77 -40 21 17 l-43 44 45 40 c35 30 40 39
25 39 -11 0 -31 -10 -45 -22 -60 -55 -58 -56 -56 22 2 59 0 70 -14 70 -15 0
-17 -15 -15 -122z"/>
<path d="M1685 1186 c-24 -21 -29 -34 -26 -68 1 -19 49 -48 80 -48 20 0 51
-24 51 -40 0 -33 -69 -52 -111 -30 -16 9 -19 7 -19 -10 0 -11 6 -20 13 -21 6
0 30 -2 53 -5 52 -6 94 23 94 67 0 36 -27 60 -82 74 -80 19 -56 79 28 68 29
-3 44 -1 44 6 0 14 -14 19 -63 25 -29 2 -45 -2 -62 -18z"/>
<path d="M182 1083 l3 -117 40 -1 c68 -2 102 11 114 46 11 32 2 64 -20 71 -9
3 -7 12 5 30 12 19 14 32 7 50 -12 32 -29 38 -97 38 l-55 0 3 -117z m116 60
c4 -24 -20 -40 -58 -39 -21 1 -26 7 -28 33 -2 24 1 32 15 35 33 7 68 -7 71
-29z m1 -77 c14 -9 14 -53 0 -62 -7 -4 -29 -9 -50 -11 l-39 -5 0 39 c0 22 3
43 7 47 8 8 65 2 82 -8z"/>
<path d="M1080 1070 l0 -130 -25 -6 c-14 -4 -24 -11 -22 -18 6 -19 32 -18 57
2 21 17 23 26 24 138 2 131 0 144 -20 144 -11 0 -14 -26 -14 -130z"/>
<path d="M1223 1183 c-3 -10 -23 -62 -43 -115 -34 -89 -36 -98 -19 -98 11 0
21 9 25 24 7 29 15 33 74 31 39 0 45 -4 50 -25 4 -16 14 -26 28 -28 l22 -3
-18 43 c-10 24 -31 76 -46 116 -21 55 -32 72 -47 72 -11 0 -22 -8 -26 -17z
m41 -56 c30 -73 30 -73 -15 -74 -29 -1 -39 3 -35 12 2 7 10 31 17 54 7 23 14
41 15 41 2 0 10 -15 18 -33z"/>
<path d="M1390 1086 c0 -91 3 -115 15 -119 12 -5 15 11 17 96 l3 101 26 -74
c35 -99 53 -101 89 -8 14 36 27 69 30 71 3 3 4 -33 2 -80 -4 -95 1 -121 21
-105 8 7 12 44 12 119 0 108 0 108 -25 111 -23 3 -28 -4 -50 -68 -14 -40 -27
-73 -30 -75 -3 -2 -18 30 -34 71 -24 64 -30 74 -52 74 l-24 0 0 -114z"/>
<path d="M444 1134 c-13 -7 -22 -9 -19 -4 4 6 -2 10 -12 10 -16 0 -18 -9 -17
-80 0 -48 5 -85 12 -92 15 -15 14 -18 17 62 4 67 18 90 57 90 10 0 18 6 18 13
0 17 -24 17 -56 1z"/>
<path d="M554 1138 c-25 -12 -44 -48 -44 -84 0 -31 26 -84 43 -85 6 -1 25 -3
40 -5 44 -5 77 34 77 88 0 25 -8 52 -18 66 -19 25 -66 35 -98 20z m64 -26 c18
-12 26 -75 13 -101 -22 -40 -78 -24 -87 25 -11 58 32 102 74 76z"/>
<path d="M753 1135 c-46 -20 -61 -91 -30 -139 20 -30 75 -43 107 -26 28 15 17
25 -24 22 -42 -4 -66 19 -66 63 0 47 24 68 72 62 54 -7 50 19 -5 28 -12 2 -36
-2 -54 -10z"/>
</g>
</svg>
